<svg width="2048" height="2048" viewBox="0 0 2048 2048" fill="none" xmlns="http://www.w3.org/2000/svg">
<path d="M1068.27 1054.91V1197.78H1175.39V1054.91H1068.27Z" fill="#232F33"/>
<path d="M1380.71 1253.44L1401.54 1231.71L1422.37 1210.28V1159.09H1288.46V1211.47L1327.15 1249.57V1328.74L1252.76 1334.82V1383.8L1454.99 1373.36V1334.82L1380.71 1328.74V1253.44Z" fill="#232F33"/>
<path d="M1514.61 1054.91V1197.78H1621.73V1054.91H1514.61Z" fill="#232F33"/>
<path d="M864.44 1329.03C797.489 1329.93 736.786 1331.12 729.645 1331.42L716.849 1331.71L718.635 1387.81L816.7 1380.59L888.156 1376.57L990.904 1372.49L990.014 1348.57L988.821 1326.36C988.821 1326.36 931.69 1327.84 864.44 1329.03Z" fill="#232F33"/>
<path d="M717.74 1211.77L718.632 1234.98L849.56 1256.41C921.57 1268.02 985.843 1277.84 985.843 1277.84L984.318 1256.62L982.868 1232.3C982.868 1232.3 955.68 1226.3 924.587 1219.4C847.328 1202.25 721.181 1174.25 718.635 1174.25C716.552 1174.25 717.145 1196.88 717.74 1211.77Z" fill="#232F33"/>
<path fill-rule="evenodd" clip-rule="evenodd" d="M467.787 420.362C536.226 381.074 633.827 352.204 737.973 340.894C782.905 335.834 879.616 331.123 959.36 346.251C1090.58 366.49 1206.93 416.195 1300.37 491.496C1326.85 512.926 1374.16 560.249 1395.88 587.631C1410.17 605.489 1456.59 673.945 1458.67 680.493C1459.26 681.981 1495.27 667.694 1538.42 648.646C1639.29 604.001 1685.11 585.25 1697.02 583.167C1708.92 581.083 1723.5 589.417 1731.83 603.108C1737.49 612.633 1737.78 618.585 1737.78 757.58V902.527L1749.69 932.588C1788.37 1030.21 1821.1 1148.67 1836.57 1246.89C1841.63 1278.44 1842.82 1304.33 1844.01 1388.26L1845.5 1490.95L1853.83 1504.34C1869.6 1529.64 1871.69 1543.03 1871.69 1622.5C1871.69 1622.5 1871.72 1690.72 1870.21 1694.14C1868.7 1697.56 1864.25 1702.27 1864.25 1702.27L1857.11 1709.71H1573.83L1566.68 1701.97C1560.73 1695.72 1559.25 1690.66 1559.25 1679.65V1665.06H1223V1679.65C1223 1690.96 1221.32 1696.54 1215.96 1703.09C1215.96 1703.09 1209.72 1711.2 1208.72 1711.19C1207.71 1711.19 1207.28 1711.2 1207.28 1711.2L917.106 1712.98L837.062 1694.82C793.32 1684.71 701.671 1664.47 633.827 1649.58L510.338 1622.2L352.035 1620.71L193.434 1618.93L185.4 1610.59L177.068 1602.56L176.176 1357.61C175.283 1109.68 177.663 1006.7 186.293 924.552C212.478 672.159 298.771 517.39 467.787 420.362ZM1126.28 600.998C1129.26 604.272 1131.04 607.546 1130.15 608.439C1129.55 609.331 1114.08 611.117 1096.23 612.308C1070.64 614.391 1062.9 614.094 1059.63 611.117C1053.08 605.165 1056.95 603.081 1082.54 599.212C1115.57 594.152 1120.33 594.45 1126.28 600.998ZM1155.74 645.94C1158.72 651 1160.5 655.762 1159.61 656.357C1158.12 657.846 1110.81 663.203 1098.91 663.501C1095.04 663.501 1090.28 659.929 1086.41 653.679L1080.46 644.154L1104.86 640.88C1146.52 635.225 1149.49 635.523 1155.74 645.94ZM1185.79 698.026C1190.26 705.467 1193.23 712.015 1192.64 712.908C1191.75 713.503 1177.16 714.991 1160.2 715.884L1128.96 717.967L1120.63 705.169C1116.16 698.324 1113.19 692.073 1114.08 691.18C1115.27 689.692 1144.14 686.716 1171.51 684.633C1175.97 684.335 1179.84 687.906 1185.79 698.026ZM1794.62 1526.07C1800.27 1529.64 1807.71 1538.57 1811.58 1546.01C1817.53 1557.91 1818.12 1563.27 1818.12 1607.62V1656.13H1782.42V1587.68H1747.24L1740.76 1656.13H1696.12L1690.23 1587.68H1657.44V1656.13H1612.81V1519.22H1698.8H1698.81C1782.71 1519.22 1784.8 1519.22 1794.62 1526.07ZM1188.17 764.1C1203.95 764.696 1217.04 764.696 1217.04 763.505C1217.04 762.519 1215.61 758.673 1213.93 754.167L1212.87 751.302C1208.41 741.183 1208.11 740.885 1192.64 741.48C1184.01 741.778 1169.73 742.671 1161.39 743.564L1145.62 745.35L1152.47 753.981C1159.01 762.017 1160.8 762.612 1188.17 764.1ZM957.575 407.564C1181.83 450.02 1336.97 553.999 1431.29 749.841C1459.86 809.07 1473.85 846.274 1469.68 851.334C1466.7 854.905 1432.48 855.501 1243.83 855.501L1223.94 798.923C1276.15 798.001 1273.98 791.911 1261.28 756.112C1257.11 744.206 1245.9 718.563 1238.46 704.276C1222.1 671.834 1165.56 585.818 1150.68 570.044L1139.67 558.436L1112 560.222L1086.2 561.833C1040.24 566.261 1020.97 571.533 1017.08 573.616C1006.66 584.926 1002.79 592.962 1002.79 604.569C1002.79 615.284 1005.77 620.344 1035.23 656.357C1045.94 669.453 1068.85 701.895 1086.41 728.98C1103.96 756.064 1122.41 782.851 1127.17 788.506L1136.4 798.923H1181.39L1205.81 855.501H1021.25L969.477 806.094C876.042 716.209 814.149 662.635 768.622 631.681C726.369 603.406 709.11 599.537 682.032 613.228C654.954 626.621 643.944 651.027 635.612 715.316C633.232 733.769 630.851 749.543 630.256 749.841C629.661 750.436 597.226 726.626 557.948 697.16L433.865 604.894C404.704 583.464 380.899 565.011 380.899 563.821C380.899 559.356 423.45 522.45 451.123 502.508C480.582 481.377 543.368 449.232 577.29 437.624C611.807 426.017 647.687 416.847 693.934 409.052C795.462 391.939 879.887 392.855 957.575 407.564ZM630.554 825.142C630.851 822.166 519.265 736.15 424.64 666.206C381.791 634.657 345.786 608.466 344.894 608.466C342.216 608.466 307.698 670.671 298.771 691.803C276.752 745.079 260.386 804.01 249.971 868.894C235.093 960.267 234.498 973.958 233.01 1277.25L249.971 1563.87H446.362L445.767 1512.38L444.875 1461.18L421.962 1453.44C409.167 1449.28 388.933 1442.73 376.435 1439.16L354.118 1432.31V1407.31C354.118 1389.16 355.011 1382.31 357.986 1382.31C359.772 1382.31 392.504 1390.35 429.996 1399.57L498.436 1416.84L499.328 1490.35C499.328 1490.35 509.446 1563.87 510.338 1563.87C510.585 1563.87 513.206 1564.53 517.897 1565.71L517.9 1565.71L517.908 1565.72C530.16 1568.81 556.513 1575.47 591.573 1583.21L775.169 1623.69C827.54 1635.3 880.506 1647.2 893.301 1650.48C909.667 1654.64 926.33 1656.13 953.409 1656.13H990.902V1587.68H1023.84L1032.56 1656.13H1075.71L1084.86 1587.68H1115.88V1656.13H1170.03L1168.84 1604.64C1167.95 1547.5 1165.27 1539.16 1145.63 1526.07L1135.81 1519.22H871.877L876.916 1473.72L1002.8 1468.92C1060.2 1468.92 1093.17 1467.68 1113.89 1466.9H1113.89H1113.9C1138.5 1465.97 1145.85 1465.69 1156.35 1468.92C1173.01 1473.98 1179.26 1478.15 1193.24 1491.84C1215.56 1514.16 1220.32 1528.15 1222.11 1575.18C1223.6 1605.83 1224.49 1611.49 1228.06 1610.3C1230.44 1609.4 1306.02 1608.51 1395.88 1608.51H1559.25V1462.67H1791.34L1789.26 1372.19L1772.3 1369.35L1748.85 1366.54L1712.72 1362.12L1681.62 1359.71L1681.25 1322.19L1735.11 1324.27L1789.26 1326.65C1789.26 1326.65 1789.76 1319.8 1788.57 1310.87C1788.22 1308.24 1787.92 1305.2 1787.59 1301.85V1301.85L1787.59 1301.84C1786.8 1293.82 1785.84 1284.08 1783.61 1274.27C1781.81 1266.34 1777.66 1254.33 1777.66 1254.33C1775.28 1254.33 1754.45 1258.2 1731.24 1263.26C1708.32 1268.02 1687.5 1272.19 1685.11 1272.19C1684.18 1272.19 1683.49 1273.03 1682.98 1273.65C1681.87 1275.02 1681.62 1275.32 1681.62 1263.26V1240.34L1731.24 1221.62L1772.3 1205.81C1772.3 1205.81 1759.51 1143.01 1747.9 1102.54C1732.43 1047.77 1715.17 995.983 1698.21 952.231L1683.33 913.539L1684.22 779.902C1684.82 667.992 1684.22 646.563 1680.95 647.753C1662.2 655.194 1491.7 731.388 1489.91 733.174C1488.72 734.364 1493.78 750.734 1501.52 769.485C1520.56 815.916 1529.49 843 1529.49 853.715C1529.19 865.62 1520.56 884.966 1511.34 893.3L1506.08 897.913C1493.57 907.607 1474.15 908.385 1293.57 910.092L1002.8 912.646L953.706 865.62C836.467 752.817 790.94 713.232 739.759 679.302C725.476 669.778 710.895 662.039 707.622 662.039C692.149 662.039 685.218 781.299 685.9 858.477C686.363 910.825 685.9 988.781 685.9 988.781L653.715 977.541L623.205 964.694L627.22 893.238L630.554 825.142ZM1380.71 1253.44L1401.54 1231.71L1422.37 1210.28V1159.09H1288.46V1211.47L1327.15 1249.57V1328.74L1252.76 1334.82V1383.8L1454.99 1373.36V1334.82L1380.71 1328.74V1253.44ZM717.74 1211.77L718.632 1234.98L849.56 1256.41C921.57 1268.02 985.843 1277.84 985.843 1277.84L984.318 1256.62L982.868 1232.3C982.868 1232.3 955.68 1226.3 924.587 1219.4C847.328 1202.25 721.181 1174.25 718.635 1174.25C716.552 1174.25 717.145 1196.88 717.74 1211.77ZM864.44 1329.03C797.489 1329.93 736.786 1331.12 729.645 1331.42L716.849 1331.71L718.635 1387.81L816.7 1380.59L888.156 1376.57L990.904 1372.49L990.014 1348.57L988.821 1326.36C988.821 1326.36 931.69 1327.84 864.44 1329.03ZM1068.27 1054.91V1197.78H1175.39V1054.91H1068.27ZM1514.61 1054.91V1197.78H1621.73V1054.91H1514.61Z" fill="#232F33"/>
</svg>
