<svg width="2048" height="2048" viewBox="0 0 2048 2048" fill="none" xmlns="http://www.w3.org/2000/svg">
<path fill-rule="evenodd" clip-rule="evenodd" d="M819.663 696.709L823.359 712.093C826.859 726.662 827.167 727.45 830.445 729.745L833.863 732.129L873.647 722.57L877.121 725.187C877.324 725.362 877.553 725.558 877.802 725.772C879.747 727.441 882.951 730.191 885.385 732.447L885.662 732.707C887.786 734.699 889.315 736.133 891.09 737.027C895.653 739.323 901.844 738.049 923.947 733.499L925.056 733.271L953.857 727.337L963.298 735.547C968.537 740.082 980.218 750.219 989.154 758.304C998.175 766.246 1007.28 774.043 1009.41 775.504L1013.36 778.13L1110.69 754.005C1164.15 740.668 1255.29 718.4 1313.11 704.506L1418.46 679.195L1420.7 675.205L1423.05 671.187L1416.03 638.482C1412.05 620.453 1407.79 599.779 1406.45 592.706L1404.04 579.724L1392.87 569.219C1374.88 552.583 1331.17 510.237 1311.17 492.607L1291.32 472.064C1290.13 470.647 1287.2 468.815 1284.33 467.783C1281.55 466.784 1281.22 467.252 1277.1 467.817C1273.8 468.268 1024.2 518.645 896.544 544.35L898.188 569.927L897.814 595.953L872.008 601.784C862.879 604.055 854.163 606.277 848.482 607.725L848.48 607.725L848.478 607.726C845.184 608.566 842.911 609.145 842.17 609.323C837.127 610.535 835.67 614.336 836.565 623.983L837.321 632.061L823.732 635.696L823.576 635.738C810.477 639.251 810.026 639.372 808.518 642.926C807.061 646.235 807.257 648.037 809.973 658.849C811.738 665.698 813.222 671.875 813.446 672.808L819.663 696.709ZM1153.09 628.417C1154.15 627.422 1108.73 578.723 1078.92 548.409L1063.84 531.828C1063.84 531.828 926.675 559.889 925.613 560.783C924.55 561.677 924.87 565.044 924.87 565.044L983.587 625.997C1008.89 652.768 1012.62 656.866 1016.62 657.268C1017.47 657.353 1018.33 657.272 1019.42 657.206C1022.33 656.999 1035.53 654.691 1064.36 648.38C1093.19 642.07 1124.74 635.23 1134.43 633.147C1144.15 631.181 1152.53 629.045 1153.09 628.417ZM961.32 640.484C958.855 637.624 955.69 634.317 954.289 632.927C951.649 630.517 951.143 629.966 937.069 614.66L937.068 614.658C935.759 613.234 934.332 611.682 932.775 609.99C925.94 602.756 920.939 597.575 920.49 597.682C920.042 597.79 918.712 599.315 918.516 601.951C918.459 604.677 917.31 608.281 915.937 609.967C913.808 612.944 912.155 613.465 890.861 618.581C878.422 621.57 867.971 624.45 867.887 625.087C867.663 625.634 871.977 630.268 877.384 635.503L887.132 644.995L912.292 639.689C926.188 636.844 938.544 634.491 939.832 634.428C941.149 634.482 943.558 634.149 945.127 633.772C946.724 633.512 949.834 634.121 952.019 635.322L955.969 637.455L960.31 656.999C962.802 667.865 966.274 685.275 968.234 695.899L971.649 715.049L985.348 727.167C992.996 733.836 999.719 739.124 1000.5 738.935C1001.29 738.747 1001.6 736.084 1001.04 732.274C1000.14 725.092 996.082 695.372 994.122 682.775L992.891 674.196L979.36 659.818C974.109 654.304 968.567 648.309 964.859 644.298C963.305 642.618 962.073 641.286 961.32 640.484ZM1335.27 545.089C1318.43 529.78 1289.7 498.999 1288.52 498.049L1277.33 486.495L1095.64 524.188L1109.81 540.986C1111.83 542.967 1145 579.092 1160.35 595.128L1162.4 597.23L1163.51 598.376C1177.64 612.923 1189.77 625.416 1191.31 626.769L1194.22 629.521L1285.64 606.939C1335.76 594.526 1377.12 584.097 1377.26 583.694C1377.54 583.38 1375.02 580.78 1371.85 577.966C1368.69 575.152 1352.21 560.371 1335.27 545.089ZM880.514 698.854C880.71 698.19 879.31 689.404 877.266 679.417C875.954 672.758 875.639 669.218 875.438 666.956C875.142 663.622 875.093 663.068 872.456 659.395C871.992 658.749 871.592 658.585 871.162 658.408C870.901 658.301 870.629 658.189 870.325 657.963C868.497 656.604 867.532 655.51 866.247 654.054L866.245 654.052C865.793 653.539 865.301 652.982 864.718 652.353C862.057 649.664 859.816 648.23 858.471 648.553C855.557 649.253 860.459 656.334 860.459 656.334C860.459 656.334 864.017 660.781 864.352 667.603C864.632 671.728 866.312 681.186 868.104 688.645L871.352 702.165L875.723 701.114C878.188 700.522 880.318 699.517 880.514 698.854ZM844.601 666.802C843.564 665.941 840.651 663.189 838.214 660.447C835.805 657.82 833.423 655.804 832.863 655.938C832.303 656.073 833.451 662.824 835.299 671.009C837.287 679.284 839.835 690.383 840.927 695.914C842.131 701.419 843.475 706.52 843.867 707.166C844.876 708.896 851.964 707.316 852.637 705.182C852.917 704.375 851.657 695.678 849.781 685.897C847.206 671.723 846.169 667.904 844.601 666.802ZM945.01 681.632C942.518 668.793 939.97 657.694 939.409 656.843C938.597 655.435 934.843 656.091 917.136 660.345L895.843 665.461L896.179 669.325C897.074 679.465 903.682 714.367 904.942 715.174C905.643 715.622 915.477 713.629 928 710.497L949.658 704.923L945.01 681.632ZM1176.32 646.766L1117.17 659.621C1084.59 666.587 1048.5 674.271 1036.99 676.668C1020.71 679.962 1015.72 681.407 1015.19 682.644C1014.71 683.622 1015.05 688.472 1015.75 693.358C1018.3 709.882 1020.06 723.635 1021.77 738.141C1022.61 746.075 1023.36 752.674 1023.39 752.79C1023.56 753.49 1155.86 720.963 1172.27 716.279L1189.48 711.406L1188.19 703.086C1187.55 698.433 1184.55 683.99 1181.61 670.766L1176.32 646.766ZM1204.61 675.718L1288.75 655.873L1374.25 635.328L1393.25 631.5L1390.91 620.769L1386.03 601.928L1274.63 628.693C1233.61 638.548 1199.43 647.253 1198.76 647.908C1197.92 648.85 1198.48 652.66 1201.08 662.513L1204.61 675.718ZM1399.75 658.543C1399.72 656.947 1399.16 654.123 1398.51 652.428L1397.37 649.129L1302.81 671.479C1222.62 690.498 1208.33 694.178 1208.11 695.711C1208 696.724 1208.53 699.432 1209.34 701.825L1210.77 706.29L1305.22 683.967L1399.75 661.502L1399.75 658.543Z" fill="#232F33"/>
<path d="M1223.96 517.962C1223.29 518.616 1225.75 521.969 1230.99 527.49L1239.06 535.907L1258.05 531.096C1268.45 528.476 1277.02 526.169 1277.1 526.026C1277.19 525.882 1273.66 522.046 1269.23 517.439L1261.33 509.228L1244.75 513.213C1235.67 515.394 1227.54 517.1 1226.56 516.966C1225.7 516.804 1224.52 517.334 1223.96 517.962Z" fill="#232F33"/>
<path d="M1268.39 567.692C1268.27 568.212 1271.66 572.452 1276.06 576.942L1284.07 585.126L1301.78 580.872C1311.98 578.421 1319.49 576.124 1319.35 575.542C1319.21 574.959 1315.48 570.8 1311.11 566.426L1303.02 558.385L1285.87 562.505C1276.46 564.767 1268.58 567.028 1268.39 567.692Z" fill="#232F33"/>
<path d="M690.33 1030.04C624.288 985.88 563.802 907.277 587.088 820.365C616.344 711.179 793.676 707.808 828.121 686.515" stroke="#232F33" stroke-width="33.7629" stroke-miterlimit="16"/>
<path d="M1059.45 1284.86V1357H1113.54V1284.86H1059.45Z" fill="#232F33"/>
<path d="M1217.21 1385.1L1227.73 1374.13L1238.25 1363.31V1337.46H1170.64V1363.91L1190.17 1383.15V1423.12L1152.61 1426.19V1450.92L1254.72 1445.65V1426.19L1217.21 1423.12V1385.1Z" fill="#232F33"/>
<path d="M1284.83 1284.86V1357H1338.92V1284.86H1284.83Z" fill="#232F33"/>
<path d="M956.533 1423.27C922.727 1423.72 892.076 1424.32 888.47 1424.47L882.009 1424.62L882.911 1452.95L932.427 1449.3L968.508 1447.28L1020.39 1445.21L1019.94 1433.14L1019.34 1421.92C1019.34 1421.92 990.49 1422.67 956.533 1423.27Z" fill="#232F33"/>
<path d="M882.459 1364.06L882.909 1375.78L949.019 1386.6C985.38 1392.46 1017.83 1397.42 1017.83 1397.42L1017.06 1386.71L1016.33 1374.43C1016.33 1374.43 1002.6 1371.4 986.903 1367.91C947.892 1359.25 884.196 1345.11 882.911 1345.11C881.859 1345.11 882.158 1356.55 882.459 1364.06Z" fill="#232F33"/>
<path fill-rule="evenodd" clip-rule="evenodd" d="M892.675 924.325C840.088 930.035 790.806 944.613 756.249 964.451C670.907 1013.44 627.334 1091.59 614.112 1219.03C609.755 1260.51 608.553 1312.51 609.004 1437.7L609.454 1561.38L613.661 1565.44L617.718 1569.65L697.801 1570.55L777.734 1571.3L840.088 1585.13C874.345 1592.64 920.622 1602.86 942.709 1607.97L983.126 1617.14L1129.65 1616.24C1129.65 1616.24 1129.86 1616.23 1130.37 1616.24C1130.88 1616.24 1134.03 1612.15 1134.03 1612.15C1136.73 1608.84 1137.58 1606.02 1137.58 1600.31V1592.94H1307.37V1600.31C1307.37 1605.87 1308.12 1608.42 1311.12 1611.58L1314.73 1615.49H1457.77L1461.37 1611.73C1461.37 1611.73 1463.62 1609.36 1464.38 1607.63C1465.15 1605.9 1465.13 1571.45 1465.13 1571.45C1465.13 1531.33 1464.08 1524.56 1456.11 1511.79L1451.91 1505.03L1451.15 1453.18C1450.55 1410.8 1449.95 1397.72 1447.4 1381.79C1439.59 1332.2 1423.06 1272.39 1403.53 1223.09L1397.52 1207.91V1134.72C1397.52 1064.54 1397.36 1061.54 1394.51 1056.73C1390.3 1049.81 1382.94 1045.6 1376.93 1046.66C1370.92 1047.71 1347.78 1057.18 1296.85 1079.72C1275.06 1089.34 1256.88 1096.55 1256.58 1095.8C1255.53 1092.49 1232.09 1057.93 1224.88 1048.91C1213.91 1035.08 1190.02 1011.19 1176.65 1000.37C1129.47 962.347 1070.72 937.249 1004.46 927.03C964.196 919.391 915.363 921.77 892.675 924.325ZM734.462 1088.59C782.242 1123.9 838.586 1167.34 838.435 1168.84L836.752 1203.22L834.725 1239.3L850.13 1245.79L866.382 1251.47C866.382 1251.47 866.615 1212.1 866.382 1185.67C866.037 1146.7 869.537 1086.48 877.35 1086.48C879.003 1086.48 886.365 1090.39 893.577 1095.2C919.42 1112.33 942.408 1132.32 1001.61 1189.28L1026.4 1213.02L1147.65 1211.97L1153.87 1211.91C1160.7 1211.85 1167.14 1211.79 1173.22 1211.73C1264.4 1210.87 1274.2 1210.48 1280.52 1205.58L1283.17 1203.25C1287.83 1199.05 1292.19 1189.28 1292.34 1183.27C1292.34 1177.86 1287.83 1164.18 1278.22 1140.74C1274.31 1131.27 1271.76 1123 1272.36 1122.4C1273.26 1121.5 1359.35 1083.03 1368.82 1079.27C1370.47 1078.67 1370.77 1089.49 1370.47 1146L1370.02 1213.47L1377.53 1233.01C1386.1 1255.1 1394.81 1281.25 1402.62 1308.9C1408.48 1329.34 1414.94 1361.05 1414.94 1361.05L1394.21 1369.03L1369.16 1378.49V1390.06C1369.16 1396.15 1369.28 1396 1369.84 1395.31C1370.1 1394.99 1370.45 1394.57 1370.92 1394.57C1372.12 1394.57 1382.64 1392.46 1394.21 1390.06C1405.93 1387.5 1416.45 1385.55 1417.65 1385.55C1417.65 1385.55 1419.74 1391.62 1420.65 1395.62C1421.78 1400.57 1422.26 1405.49 1422.66 1409.54L1422.66 1409.55V1409.55C1422.83 1411.24 1422.98 1412.77 1423.16 1414.1C1423.76 1418.61 1423.51 1422.07 1423.51 1422.07L1396.16 1420.87L1368.97 1419.82L1369.16 1438.76L1384.86 1439.98L1403.1 1442.21L1414.94 1443.63L1423.51 1445.06L1424.56 1490.75H1307.37V1564.39H1224.88C1179.5 1564.39 1141.34 1564.84 1140.14 1565.29C1138.33 1565.89 1137.88 1563.04 1137.13 1547.56C1136.23 1523.81 1133.83 1516.75 1122.56 1505.48C1115.5 1498.56 1112.34 1496.46 1103.93 1493.91C1098.63 1492.27 1094.92 1492.41 1082.49 1492.88H1082.49H1082.49C1072.03 1493.28 1055.38 1493.91 1026.4 1493.91L962.832 1496.33L960.288 1519.3H1093.56L1098.52 1522.76C1108.43 1529.37 1109.79 1533.58 1110.24 1562.44L1110.84 1588.44H1083.49V1553.87H1067.83L1063.21 1588.44H1041.42L1037.02 1553.87H1020.39V1588.44H1001.46C987.784 1588.44 979.37 1587.68 971.106 1585.58C964.645 1583.93 937.901 1577.92 911.457 1572.05L818.753 1551.62C801.05 1547.7 787.743 1544.34 781.557 1542.78L781.552 1542.78L781.551 1542.78C779.182 1542.18 777.859 1541.85 777.734 1541.85C777.284 1541.85 772.175 1504.73 772.175 1504.73L771.724 1467.61L737.167 1458.89C718.235 1454.23 701.708 1450.17 700.806 1450.17C699.304 1450.17 698.853 1453.63 698.853 1462.8V1475.42L710.122 1478.88C716.432 1480.68 726.649 1483.99 733.11 1486.09L744.679 1490L745.13 1515.85L745.431 1541.85H646.266L637.701 1397.12C638.453 1243.98 638.753 1237.07 646.266 1190.93C651.524 1158.17 659.788 1128.41 670.907 1101.51C675.414 1090.84 692.843 1059.43 694.195 1059.43C694.646 1059.43 712.826 1072.66 734.462 1088.59ZM1090.7 1059.42C1091.15 1058.97 1090.25 1057.31 1088.75 1055.66C1085.74 1052.35 1083.34 1052.2 1066.66 1054.76C1053.74 1056.71 1051.78 1057.76 1055.09 1060.77C1056.74 1062.27 1060.65 1062.42 1073.57 1061.37C1082.59 1060.77 1090.4 1059.87 1090.7 1059.42ZM1105.57 1083.61C1106.02 1083.31 1105.12 1080.91 1103.62 1078.35C1100.47 1073.09 1098.96 1072.94 1077.93 1075.8L1065.61 1077.45L1068.61 1082.26C1070.57 1085.42 1072.97 1087.22 1074.92 1087.22C1080.93 1087.07 1104.82 1084.36 1105.57 1083.61ZM1122.25 1112.17C1122.55 1111.72 1121.05 1108.41 1118.8 1104.65C1115.79 1099.54 1113.84 1097.74 1111.58 1097.89C1097.76 1098.94 1083.19 1100.45 1082.59 1101.2C1082.14 1101.65 1083.64 1104.8 1085.89 1108.26L1090.1 1114.72L1105.87 1113.67C1114.44 1113.22 1121.8 1112.47 1122.25 1112.17ZM1434.78 1532.83C1432.82 1529.07 1429.07 1524.56 1426.21 1522.76C1421.25 1519.3 1420.2 1519.3 1377.83 1519.3H1377.83H1334.41V1588.44H1356.95V1553.87H1373.51L1376.48 1588.44H1399.02L1402.29 1553.87H1420.05V1588.44H1438.08V1563.94C1438.08 1541.55 1437.78 1538.84 1434.78 1532.83ZM1134.57 1137.72C1134.57 1138.32 1127.96 1138.32 1120 1138.02C1106.18 1137.27 1105.27 1136.96 1101.97 1132.91L1098.51 1128.55L1106.48 1127.65C1110.68 1127.2 1117.89 1126.75 1122.25 1126.6C1130.06 1126.29 1130.22 1126.44 1132.47 1131.55L1133 1133C1133.85 1135.28 1134.57 1137.22 1134.57 1137.72ZM1242.76 1130.82C1195.13 1031.93 1116.79 979.426 1003.56 957.988C964.333 950.562 921.703 950.099 870.439 958.74C847.087 962.676 828.97 967.306 811.541 973.167C794.412 979.028 762.709 995.259 747.835 1005.93C733.861 1016 712.376 1034.63 712.376 1036.89C712.376 1037.49 724.396 1046.81 739.12 1057.63L801.774 1104.22C821.607 1119.09 837.985 1131.12 838.285 1130.82C838.586 1130.67 839.788 1122.7 840.99 1113.38C845.197 1080.92 850.756 1068.6 864.429 1061.84C878.101 1054.92 886.816 1056.88 908.151 1071.15C931.139 1086.78 962.391 1113.83 1009.57 1159.22L1035.71 1184.17H1128.9L1116.57 1155.6H1093.85L1089.2 1150.34C1086.79 1147.48 1077.48 1133.96 1068.61 1120.28C1059.75 1106.61 1048.18 1090.23 1042.77 1083.61C1027.89 1065.43 1026.39 1062.87 1026.39 1057.46C1026.39 1051.6 1028.35 1047.54 1033.6 1041.83C1035.57 1040.78 1045.3 1038.12 1068.51 1035.88L1081.53 1035.07L1095.51 1034.17L1101.07 1040.03C1108.58 1048 1137.13 1091.43 1145.39 1107.81C1149.15 1115.02 1154.81 1127.97 1156.91 1133.98C1163.33 1152.06 1164.42 1155.13 1138.06 1155.6L1148.1 1184.17C1243.36 1184.17 1260.64 1183.87 1262.14 1182.06C1264.24 1179.51 1257.18 1160.72 1242.76 1130.82Z" fill="#232F33"/>
</svg>
