<svg width="2048" height="790" viewBox="0 0 2048 790" fill="none" xmlns="http://www.w3.org/2000/svg">
<path d="M211.972 723C198.441 723 187.063 716.85 177.838 704.549C168.613 692.249 164 674.721 164 651.965L164 117.817L197.211 68H393.711V205.458H354.042L326.366 122.43H264.556C239.956 122.43 227.04 136.268 225.81 163.944L242.415 639.972C242.415 644.277 244.568 648.275 248.873 651.965C253.178 655.04 257.484 656.577 261.789 656.577H329.134C333.439 656.577 337.437 655.655 341.127 653.81C345.432 651.35 347.585 648.582 347.585 645.507L356.81 466.535L301.458 464.69V413.028L405.704 401.035V723H211.972Z" fill="#232F33"/>
<path d="M746.077 723H692.569L668.584 466.535H621.534L579.098 723H535.739L577.253 68H746.077V723ZM687.957 103.056C687.957 99.3662 686.112 97.5211 682.422 97.5211H642.753C639.062 97.5211 637.217 99.3662 637.217 103.056V418.563C637.217 421.638 639.062 423.176 642.753 423.176H682.422C686.112 423.176 687.957 421.331 687.957 417.641V103.056Z" fill="#232F33"/>
<path d="M1064.08 80.9155L1068.7 139.035H987.514V723H909.099L927.549 155.641L861.127 133.5L873.12 68L1064.08 80.9155Z" fill="#232F33"/>
<path d="M1250.8 723C1225.58 723 1208.05 719.002 1198.21 711.007C1188.37 703.012 1183.45 689.789 1183.45 671.338V90.1408C1196.98 82.7606 1214.51 77.2254 1236.04 73.5352C1258.18 69.8451 1287.39 68 1323.68 68C1340.28 68 1353.81 72.3052 1364.27 80.9155C1374.72 88.9108 1379.95 99.3662 1379.95 112.282L1373.61 712.127C1373.61 712.127 1371.48 716.012 1370.49 717.781C1368.31 721.666 1346.13 723 1346.13 723H1250.8ZM1307.99 670.415L1316.3 662.113L1321.83 135.345C1321.83 132.27 1319.06 130.425 1313.53 129.81L1256.33 127.042L1248.03 132.577L1242.49 664.88L1307.99 670.415Z" fill="#232F33"/>
<path d="M1692.25 723H1517.89V68H1607.38L1588.01 647.352L1692.25 663.958V723Z" fill="#232F33"/>
<path d="M1875.53 723H1807.27V154.718L1790.66 110.437V68H1883.84L1875.53 723Z" fill="#232F33"/>
</svg>
