<svg width="2048" height="2048" viewBox="0 0 2048 2048" fill="none" xmlns="http://www.w3.org/2000/svg">
<path d="M948.291 811.353C1065.89 811.353 1161.23 906.688 1161.23 1024.29C1161.23 1141.89 1065.89 1237.23 948.291 1237.23C830.688 1237.23 735.353 1141.89 735.353 1024.29C735.353 906.688 830.688 811.353 948.291 811.353ZM948.291 830.39C841.203 830.39 754.39 917.203 754.39 1024.29C754.39 1131.38 841.202 1218.19 948.291 1218.19C1055.38 1218.19 1142.19 1131.38 1142.19 1024.29C1142.19 917.202 1055.38 830.39 948.291 830.39Z" fill="#232F33" stroke="#232F33" stroke-width="0.705095"/>
<path d="M1058.44 861.997C1058.97 861.685 1059.51 861.373 1060.05 861.062L1058.44 861.997Z" fill="#232F33"/>
<path d="M965.567 1223.13C913.647 1150.87 859.811 977.771 1058.44 861.997M1058.44 861.997C1058.97 861.685 1059.51 861.373 1060.05 861.062L1058.44 861.997ZM1022.33 1210.08C1017.74 1207.62 883.07 1029.58 1104.82 894.906" stroke="#232F33" stroke-width="19.7427"/>
<path d="M1153.12 1039.1C1167.93 1035.57 1220.22 1038.22 1238.44 1068.36C1255.32 1096.29 1222.85 1129.44 1243.02 1155.09C1263 1180.49 1293.79 1173.42 1312.12 1173.42" stroke="#232F33" stroke-width="19.7427"/>
<path d="M951.112 822.281C947.469 837.911 953.157 881.65 999.411 900.547" stroke="#232F33" stroke-width="19.7427"/>
<path d="M903.517 824.045C893.881 854.599 904.575 897.727 969.443 930.867" stroke="#232F33" stroke-width="19.7427"/>
<path d="M982.488 1063.07C1022.56 1058.14 1103.41 1093.04 1144.66 971.409M982.488 1113.84C1022.56 1108.9 1137.05 1127.8 1150.3 1001.73M993.541 1155.09C1033.61 1150.15 1127.88 1174.34 1141.13 1048.26" stroke="#232F33" stroke-width="19.7427"/>
<path d="M1038.54 950.609C1051.35 973.172 1070.63 1017.17 1033.96 1063.42" stroke="#232F33" stroke-width="19.7427"/>
<path d="M1076.62 919.232C1094.71 937.447 1132.32 986.075 1104.12 1040.51" stroke="#232F33" stroke-width="19.7427"/>
<path d="M935.001 908C884.834 944 791.4 1058.1 855 1206.5" stroke="#232F33" stroke-width="20"/>
<path d="M837.5 854C837.5 858 842.5 931 892.5 951" stroke="#232F33" stroke-width="20"/>
<path d="M774 918.5C775 941.167 806.6 1000.3 857 1001.5" stroke="#232F33" stroke-width="22"/>
<path d="M850.5 1012C844.833 1030.33 803.3 1068.5 752.5 1062.5" stroke="#232F33" stroke-width="19"/>
<path d="M837.5 1104.5C812 1128.5 795.5 1129 771 1125" stroke="#232F33" stroke-width="19"/>
</svg>
