<svg width="2048" height="2048" viewBox="0 0 2048 2048" fill="none" xmlns="http://www.w3.org/2000/svg">
<path fill-rule="evenodd" clip-rule="evenodd" d="M341.998 616.774C449.698 696.37 576.703 794.255 576.365 797.642L572.57 875.135L568.001 956.453L602.726 971.072L639.359 983.863C639.359 983.863 639.886 895.15 639.359 835.577C638.582 747.749 646.471 612.032 664.083 612.032C667.808 612.032 684.404 620.838 700.66 631.677C758.913 670.289 810.731 715.337 944.171 843.706L1000.05 897.222L1331 894.315C1536.53 892.373 1558.64 891.487 1572.87 880.455L1578.86 875.206C1589.36 865.722 1599.18 843.706 1599.52 830.158C1599.52 817.965 1589.36 787.143 1567.68 734.305C1558.88 712.966 1553.12 694.337 1554.47 692.983C1556.51 690.95 1750.57 604.242 1771.91 595.774C1775.63 594.419 1776.31 618.806 1775.63 746.159L1774.62 898.238L1791.55 942.27C1810.85 992.059 1830.5 1050.99 1848.11 1113.32C1861.32 1159.38 1875.88 1230.85 1875.88 1230.85L1829.14 1248.83L1772.67 1270.14V1296.22C1772.67 1309.95 1772.95 1309.61 1774.22 1308.05C1774.8 1307.34 1775.59 1306.38 1776.65 1306.38C1779.36 1306.38 1803.06 1301.64 1829.14 1296.22C1855.56 1290.46 1879.27 1286.06 1881.98 1286.06C1881.98 1286.06 1886.7 1299.73 1888.75 1308.75C1891.29 1319.91 1892.38 1331 1893.28 1340.12L1893.28 1340.13V1340.14C1893.65 1343.94 1894 1347.41 1894.39 1350.4C1895.75 1360.56 1895.19 1368.36 1895.19 1368.36L1833.55 1365.65L1772.24 1363.28L1772.67 1405.98L1808.06 1408.72L1849.18 1413.75L1875.88 1416.95L1895.19 1420.18L1897.56 1523.15H1633.39V1689.11H1447.45C1345.17 1689.11 1259.14 1690.13 1256.43 1691.15C1252.37 1692.5 1251.35 1686.07 1249.66 1651.18C1247.63 1597.66 1242.21 1581.75 1216.81 1556.34C1200.89 1540.76 1193.78 1536.02 1174.81 1530.26C1162.86 1526.58 1154.5 1526.9 1126.5 1527.96H1126.49H1126.49H1126.49C1102.9 1528.85 1065.38 1530.26 1000.05 1530.26L856.77 1535.72L851.034 1587.5H1151.44L1162.62 1595.29C1184.97 1610.2 1188.02 1619.68 1189.04 1684.71L1190.39 1743.31H1128.75V1665.41H1093.45L1083.03 1743.31H1033.92L1024 1665.41H986.506V1743.31H943.833C913.013 1743.31 894.047 1741.61 875.419 1736.87C860.856 1733.15 800.571 1719.6 740.963 1706.39L531.997 1660.32C492.093 1651.51 462.099 1643.94 448.154 1640.41L448.144 1640.41L448.141 1640.41C442.802 1639.06 439.819 1638.31 439.538 1638.31C438.522 1638.31 427.007 1554.65 427.007 1554.65L425.991 1470.99L348.094 1451.34C305.42 1440.84 268.166 1431.7 266.134 1431.7C262.747 1431.7 261.731 1439.49 261.731 1460.15V1488.6L287.132 1496.39C301.356 1500.46 324.387 1507.91 338.95 1512.65L365.028 1521.46L366.044 1579.71L366.722 1638.31H143.193L123.888 1312.14C125.581 966.995 126.259 951.415 143.193 847.432C155.046 773.594 173.674 706.531 198.736 645.903C208.897 621.855 248.184 551.065 251.232 551.065C252.248 551.065 293.228 580.871 341.998 616.774ZM1453.88 1260.31L1430.18 1285.04V1370.73L1514.72 1377.66V1421.51L1284.54 1433.39V1377.66L1369.21 1370.73V1280.64L1325.19 1237.28V1177.67H1477.59V1235.93L1453.88 1260.31ZM676.615 1264.04L675.599 1237.62C674.921 1220.68 674.247 1194.92 676.617 1194.92C679.515 1194.92 823.093 1226.79 911.028 1246.31C946.418 1254.16 977.363 1260.99 977.363 1260.99L979.013 1288.66L980.749 1312.81C980.749 1312.81 907.594 1301.64 825.634 1288.43L676.615 1264.04ZM689.148 1373.78C697.277 1373.44 766.368 1372.09 842.571 1371.07C919.112 1369.72 984.139 1368.02 984.139 1368.02L985.496 1393.3L986.51 1420.52L869.563 1425.17L788.233 1429.74L676.617 1437.96L674.585 1374.12L689.148 1373.78ZM1074.56 1221.7V1059.12H1196.49V1221.7H1074.56ZM1582.58 1221.7V1059.12H1704.51V1221.7H1582.58Z" fill="#232F33"/>
<path d="M948.574 322.439C1203.81 370.755 1380.39 489.082 1487.75 711.95C1520.27 779.352 1536.18 821.69 1531.44 827.448C1528.06 831.513 1489.11 832.19 1274.38 832.19L1251.75 767.806C1311.17 766.756 1308.7 759.825 1294.24 719.086C1289.5 705.538 1276.74 676.355 1268.28 660.097C1249.65 623.178 1185.3 525.293 1168.37 507.341L1155.83 494.132L1124.34 496.164L1094.97 497.997C1042.66 503.037 1020.73 509.036 1016.3 511.406C1004.44 524.277 1000.04 533.422 1000.04 546.631C1000.04 558.825 1003.43 564.582 1036.96 605.566C1049.15 620.469 1075.23 657.388 1095.21 688.21C1115.19 719.032 1136.19 749.515 1141.61 755.951L1152.11 767.806H1203.32L1231.11 832.19H1021.05L962.121 775.965C855.776 673.676 785.33 612.709 733.512 577.484C685.42 545.307 665.776 540.904 634.956 556.484C604.136 571.726 591.605 599.5 582.122 672.66C579.413 693.66 576.703 711.611 576.026 711.95C575.349 712.627 538.432 685.531 493.727 651.999L352.497 547.001C319.306 522.614 292.212 501.614 292.212 500.259C292.212 495.179 340.643 453.179 372.14 430.486C405.67 406.438 477.131 369.858 515.741 356.648C555.028 343.439 595.866 333.003 648.504 324.133C764.06 304.658 860.152 305.701 948.574 322.439Z" fill="#232F33"/>
<path d="M1901.28 1595.29C1907.72 1599.36 1916.18 1609.52 1920.59 1617.99C1927.36 1631.53 1928.04 1637.63 1928.04 1688.1V1743.31H1887.4V1665.41H1847.36L1839.98 1743.31H1789.18L1782.48 1665.41H1745.15V1743.31H1694.35V1587.5H1792.23H1792.23C1887.73 1587.5 1890.11 1587.5 1901.28 1595.29Z" fill="#232F33"/>
<path d="M1174.12 593.711C1177.51 599.469 1179.54 604.888 1178.53 605.566C1176.83 607.259 1122.98 613.356 1109.44 613.695C1105.03 613.695 1099.61 609.63 1095.21 602.517L1088.44 591.679L1116.21 587.953C1163.62 581.518 1167.01 581.857 1174.12 593.711Z" fill="#232F33"/>
<path d="M1243.89 727.5C1243.89 728.854 1228.99 728.854 1211.04 728.177C1179.88 726.484 1177.85 725.806 1170.4 716.661L1162.61 706.839L1180.56 704.806C1190.04 703.79 1206.3 702.774 1216.12 702.436C1233.73 701.758 1234.07 702.097 1239.15 713.613L1240.36 716.873C1242.26 722.001 1243.89 726.377 1243.89 727.5Z" fill="#232F33"/>
<path d="M1208.33 652.985C1213.41 661.452 1216.8 668.904 1216.12 669.92C1215.1 670.597 1198.51 672.291 1179.2 673.307L1143.64 675.678L1134.16 661.113C1129.08 653.323 1125.69 646.21 1126.71 645.194C1128.06 643.501 1160.91 640.114 1192.07 637.743C1197.15 637.404 1201.56 641.469 1208.33 652.985Z" fill="#232F33"/>
<path d="M1140.59 542.567C1143.98 546.292 1146.01 550.018 1145 551.034C1144.32 552.05 1126.71 554.083 1106.39 555.437C1077.26 557.808 1068.45 557.47 1064.73 554.083C1057.28 547.309 1061.68 544.938 1090.81 540.534C1128.4 534.776 1133.82 535.115 1140.59 542.567Z" fill="#232F33"/>
</svg>
