<svg width="2048" height="2048" viewBox="0 0 2048 2048" fill="none" xmlns="http://www.w3.org/2000/svg">
<path d="M1063.39 747.257V872.704H1157.45V747.257H1063.39Z" fill="#232F33"/>
<path d="M1337.74 921.576L1356.03 902.497L1374.32 883.68V838.728H1256.74V884.726L1290.71 918.178V987.697L1225.39 993.042V1036.05L1402.97 1026.88V993.042L1337.74 987.697V921.576Z" fill="#232F33"/>
<path d="M1455.32 747.257V872.704H1549.38V747.257H1455.32Z" fill="#232F33"/>
<path d="M884.412 987.959C825.622 988.743 772.32 989.788 766.049 990.049L754.814 990.311L756.381 1039.57L842.491 1033.23L905.237 1029.7L995.459 1026.12L994.677 1005.11L993.63 985.607C993.63 985.607 943.463 986.913 884.412 987.959Z" fill="#232F33"/>
<path d="M755.595 884.987L756.379 905.372L871.346 924.189C934.577 934.382 991.015 943.006 991.015 943.006L989.675 924.372L988.402 903.02C988.402 903.02 964.529 897.752 937.226 891.691C869.386 876.631 758.617 852.041 756.381 852.041C754.552 852.041 755.073 871.919 755.595 884.987Z" fill="#232F33"/>
<path fill-rule="evenodd" clip-rule="evenodd" d="M536.114 190.061C596.21 155.563 681.912 130.212 773.362 120.281C812.817 115.838 897.738 111.701 967.76 124.985C1082.99 142.757 1185.15 186.402 1267.19 252.524C1290.45 271.341 1331.99 312.895 1351.07 336.939C1363.61 352.62 1404.37 412.73 1406.2 418.48C1406.72 419.787 1438.34 407.242 1476.22 390.516C1564.8 351.313 1605.04 334.848 1615.49 333.019C1625.94 331.19 1638.74 338.507 1646.06 350.529C1651.03 358.892 1651.29 364.119 1651.29 486.169V613.446L1661.74 639.842C1695.71 725.565 1724.45 829.581 1738.03 915.826C1742.48 943.529 1743.52 966.267 1744.57 1039.97L1745.87 1130.13L1753.19 1141.89C1767.04 1164.11 1768.87 1175.87 1768.87 1245.65C1768.87 1245.65 1768.9 1305.55 1767.57 1308.56C1766.25 1311.56 1762.33 1315.69 1762.33 1315.69L1756.06 1322.22H1507.32L1501.05 1315.43C1495.82 1309.94 1494.51 1305.5 1494.51 1295.83V1283.02H1199.26V1295.83C1199.26 1305.76 1197.78 1310.67 1193.08 1316.42C1193.08 1316.42 1187.6 1323.54 1186.72 1323.53C1185.83 1323.52 1185.46 1323.54 1185.46 1323.54L930.657 1325.1L860.371 1309.16C821.962 1300.27 741.486 1282.5 681.912 1269.43L573.478 1245.39L434.473 1244.08L295.207 1242.51L288.153 1235.19L280.837 1228.14L280.053 1013.05C279.269 795.345 281.359 704.918 288.936 632.786C311.93 411.162 387.703 275.261 536.114 190.061ZM1114.33 348.676C1116.95 351.551 1118.51 354.426 1117.73 355.21C1117.21 355.994 1103.62 357.562 1087.94 358.607C1065.47 360.437 1058.68 360.175 1055.8 357.562C1050.06 352.335 1053.45 350.505 1075.92 347.108C1104.93 342.665 1109.11 342.926 1114.33 348.676ZM1140.2 388.14C1142.81 392.583 1144.38 396.764 1143.6 397.287C1142.29 398.594 1100.75 403.298 1090.29 403.559C1086.9 403.559 1082.72 400.423 1079.32 394.935L1074.09 386.572L1095.52 383.697C1132.1 378.731 1134.71 378.993 1140.2 388.14ZM1166.59 433.876C1170.51 440.409 1173.12 446.159 1172.6 446.943C1171.82 447.466 1159.01 448.773 1144.12 449.557L1116.68 451.386L1109.37 440.148C1105.45 434.137 1102.84 428.649 1103.62 427.865C1104.66 426.558 1130.01 423.944 1154.05 422.115C1157.97 421.854 1161.36 424.99 1166.59 433.876ZM1701.19 1160.97C1706.16 1164.11 1712.69 1171.95 1716.09 1178.48C1721.31 1188.94 1721.83 1193.64 1721.83 1232.58V1275.18H1690.48V1215.07H1659.59L1653.9 1275.18H1614.71L1609.54 1215.07H1580.74V1275.18H1541.55V1154.96H1617.06H1617.06C1690.74 1154.96 1692.57 1154.96 1701.19 1160.97ZM1168.68 491.895C1182.53 492.418 1194.03 492.418 1194.03 491.372C1194.03 490.506 1192.77 487.129 1191.3 483.173L1190.37 480.657C1186.45 471.771 1186.19 471.51 1172.6 472.033C1165.02 472.294 1152.48 473.078 1145.16 473.862L1131.32 475.43L1137.33 483.009C1143.07 490.066 1144.64 490.588 1168.68 491.895ZM966.192 178.823C1163.11 216.104 1299.33 307.407 1382.16 479.374C1407.24 531.382 1419.53 564.051 1415.87 568.494C1413.25 571.63 1383.21 572.153 1217.55 572.153L1200.09 522.473C1245.93 521.663 1244.03 516.315 1232.87 484.88C1229.21 474.426 1219.37 451.909 1212.84 439.364C1198.47 410.877 1148.82 335.347 1135.76 321.496L1126.09 311.303L1101.79 312.871L1079.14 314.286C1038.78 318.174 1021.86 322.804 1018.44 324.632C1009.3 334.563 1005.9 341.62 1005.9 351.812C1005.9 361.221 1008.51 365.664 1034.38 397.287C1043.79 408.786 1063.9 437.273 1079.32 461.056C1094.74 484.839 1110.94 508.36 1115.12 513.326L1123.22 522.473H1162.72L1184.16 572.153H1022.11L976.644 528.769C894.6 449.842 840.252 402.799 800.275 375.619C763.172 350.791 748.018 347.393 724.241 359.415C700.463 371.176 690.796 392.606 683.48 449.058C681.389 465.261 679.299 479.113 678.777 479.374C678.254 479.897 649.774 458.989 615.284 433.115L506.327 352.097C480.721 333.28 459.818 317.077 459.818 316.031C459.818 312.111 497.182 279.704 521.482 262.193C547.349 243.638 602.481 215.412 632.268 205.219C662.577 195.027 694.083 186.975 734.692 180.13C823.842 165.103 897.976 165.908 966.192 178.823ZM679.038 545.495C679.299 542.882 581.317 467.352 498.227 405.935C460.602 378.232 428.986 355.234 428.202 355.234C425.851 355.234 395.542 409.855 387.703 428.411C368.368 475.193 353.997 526.94 344.852 583.914C331.788 664.148 331.265 676.17 329.959 942.484L344.852 1194.16H517.301L516.779 1148.95L515.995 1104L495.876 1097.2C484.64 1093.54 466.873 1087.79 455.899 1084.66L436.302 1078.65V1056.69C436.302 1040.75 437.086 1034.74 439.699 1034.74C441.267 1034.74 470.008 1041.8 502.93 1049.9L563.026 1065.06L563.81 1129.61C563.81 1129.61 572.694 1194.16 573.478 1194.16C573.695 1194.16 575.996 1194.74 580.115 1195.78L580.117 1195.79L580.125 1195.79C590.883 1198.5 614.024 1204.35 644.809 1211.15L806.023 1246.69C852.01 1256.89 898.519 1267.34 909.754 1270.22C924.125 1273.87 938.757 1275.18 962.534 1275.18H995.456V1215.07H1024.38L1032.04 1275.18H1069.92L1077.96 1215.07H1105.2V1275.18H1152.75L1151.71 1229.97C1150.92 1179.79 1148.57 1172.47 1131.33 1160.97L1122.7 1154.96H890.942L895.367 1115.01L1005.91 1110.79C1056.31 1110.79 1085.26 1109.7 1103.45 1109.01H1103.46H1103.46C1125.06 1108.2 1131.51 1107.95 1140.73 1110.79C1155.36 1115.24 1160.85 1118.89 1173.13 1130.92C1192.73 1150.52 1196.91 1162.8 1198.48 1204.09C1199.78 1231.01 1200.57 1235.98 1203.7 1234.93C1205.79 1234.15 1272.16 1233.37 1351.07 1233.37H1494.51V1105.3H1698.32L1696.49 1025.85L1681.6 1023.36L1661 1020.89L1629.28 1017.01L1601.97 1014.9L1601.64 981.948L1648.94 983.777L1696.49 985.868C1696.49 985.868 1696.92 979.848 1695.88 972.008C1695.57 969.701 1695.31 967.027 1695.02 964.09V964.089L1695.02 964.079C1694.32 957.036 1693.48 948.485 1691.52 939.87C1689.94 932.911 1686.3 922.36 1686.3 922.36C1684.21 922.36 1665.92 925.758 1645.54 930.201C1625.42 934.382 1607.13 938.041 1605.04 938.041C1604.22 938.041 1603.62 938.783 1603.17 939.331C1602.19 940.532 1601.97 940.795 1601.97 930.201V910.077L1645.54 893.636L1681.6 879.76C1681.6 879.76 1670.36 824.616 1660.17 789.072C1646.58 740.984 1631.43 695.51 1616.54 657.091L1603.47 623.116L1604.26 505.77C1604.78 407.503 1604.26 388.686 1601.38 389.732C1584.92 396.265 1435.2 463.171 1433.63 464.739C1432.59 465.784 1437.03 480.158 1443.83 496.623C1460.55 537.394 1468.39 561.176 1468.39 570.585C1468.12 581.039 1460.55 598.026 1452.45 605.344L1447.83 609.394C1436.85 617.907 1419.8 618.59 1261.23 620.089L1005.91 622.332L962.796 581.039C859.848 481.988 819.872 447.228 774.93 417.435C762.388 409.071 749.585 402.276 746.711 402.276C733.124 402.276 727.038 506.997 727.637 574.766C728.044 620.733 727.637 689.185 727.637 689.185L699.376 679.315L672.585 668.035L676.11 605.29L679.038 545.495ZM1337.74 921.576L1356.03 902.497L1374.32 883.68V838.728H1256.74V884.726L1290.71 918.178V987.697L1225.39 993.042V1036.05L1402.97 1026.88V993.042L1337.74 987.697V921.576ZM755.595 884.987L756.379 905.372L871.346 924.189C934.577 934.382 991.015 943.006 991.015 943.006L989.675 924.372L988.402 903.02C988.402 903.02 964.529 897.752 937.226 891.691C869.386 876.631 758.617 852.041 756.381 852.041C754.552 852.041 755.073 871.919 755.595 884.987ZM884.412 987.959C825.622 988.743 772.32 989.788 766.049 990.049L754.814 990.311L756.381 1039.57L842.491 1033.23L905.237 1029.7L995.459 1026.12L994.677 1005.11L993.63 985.607C993.63 985.607 943.463 986.913 884.412 987.959ZM1063.39 747.257V872.704H1157.45V747.257H1063.39ZM1455.32 747.257V872.704H1549.38V747.257H1455.32Z" fill="#232F33"/>
<path d="M321.235 1915.45C309.576 1915.45 299.772 1909.98 291.822 1899.03C283.873 1888.09 279.898 1872.5 279.898 1852.25V1393.46L308.516 1349.14H477.838V1471.43H443.655L419.807 1397.56H366.547C345.348 1397.56 334.219 1409.87 333.159 1434.49L347.468 1841.58C347.468 1845.41 349.323 1848.97 353.033 1852.25C356.742 1854.99 360.452 1856.35 364.162 1856.35H422.192C425.902 1856.35 429.347 1855.53 432.526 1853.89C436.236 1851.7 438.091 1849.24 438.091 1846.51L446.04 1687.28L398.344 1685.64V1639.68L488.172 1629.01V1915.45H321.235Z" fill="#232F33"/>
<path d="M781.466 1931.86H735.36L714.692 1703.7H674.15L637.583 1931.86H600.221L637.583 1349.05L769.542 1377.86L781.466 1931.86ZM719.461 1409.05C719.461 1405.77 717.871 1404.13 714.692 1404.13L692.433 1392.64C689.254 1392.64 687.664 1394.28 687.664 1397.56V1661.02C687.664 1663.75 689.254 1665.12 692.433 1665.12H726.616C729.795 1665.12 731.385 1663.48 731.385 1660.2L719.461 1409.05Z" fill="#232F33"/>
<path d="M1055.49 1427.93L1059.46 1479.64H989.51V1931.86H921.94L937.839 1494.41L880.604 1474.71L890.938 1416.44L1055.49 1427.93Z" fill="#232F33"/>
<path d="M1216.38 1931.86C1194.65 1931.86 1179.55 1928.31 1171.07 1921.19C1162.59 1914.08 1158.35 1902.32 1158.35 1885.9L1152.78 1439.42C1164.44 1432.85 1179.55 1427.93 1198.09 1424.65C1217.17 1421.36 1242.35 1419.72 1273.61 1419.72C1287.92 1419.72 1299.58 1423.55 1308.59 1431.21C1317.6 1438.32 1322.1 1447.63 1322.1 1459.12V1928.78C1322.1 1928.78 1321.94 1930.21 1321.22 1930.92C1320.51 1931.64 1308.6 1931.86 1308.6 1931.86H1216.38ZM1265.66 1885.08L1272.82 1877.69L1272.02 1479.64C1272.02 1476.9 1269.64 1475.26 1264.87 1474.71L1215.58 1472.25L1208.43 1477.17L1209.22 1880.16L1265.66 1885.08Z" fill="#232F33"/>
<path d="M1596.77 1931.86H1446.53L1434.25 1408.23L1497.38 1418.9L1506.95 1864.56L1596.77 1879.34V1931.86Z" fill="#232F33"/>
<path d="M1754.71 1931.86H1695.88L1703.02 1479.64L1688.71 1440.24V1408.23H1769L1754.71 1931.86Z" fill="#232F33"/>
</svg>
