<svg width="2048" height="2048" viewBox="0 0 2048 2048" fill="none" xmlns="http://www.w3.org/2000/svg">
<path fill-rule="evenodd" clip-rule="evenodd" d="M460.023 414.615C549.085 480.409 654.111 561.321 653.831 564.121L650.693 628.177L646.915 695.394L675.631 707.477L705.924 718.051C705.924 718.051 706.36 644.72 705.924 595.478C705.282 522.879 711.805 410.695 726.369 410.695C729.45 410.695 743.173 417.975 756.616 426.934C804.788 458.851 847.639 496.087 957.986 602.197L1004.2 646.433L1277.87 644.031C1447.84 642.425 1466.11 641.693 1477.89 632.574L1482.84 628.235C1491.52 620.396 1499.64 602.197 1499.92 590.998C1499.92 580.919 1491.52 555.442 1473.59 511.766C1466.31 494.127 1461.55 478.729 1462.67 477.609C1464.35 475.929 1624.83 404.256 1642.48 397.256C1645.56 396.137 1646.12 416.295 1645.56 521.565L1644.72 647.273L1658.72 683.67C1674.68 724.826 1690.93 773.541 1705.49 825.057C1716.41 863.133 1728.46 922.208 1728.46 922.208L1689.81 937.072L1643.11 954.684V976.242C1643.11 987.592 1643.34 987.31 1644.39 986.023C1644.87 985.437 1645.52 984.642 1646.4 984.642C1648.64 984.642 1668.24 980.722 1689.81 976.242C1711.65 971.483 1731.26 967.843 1733.5 967.843C1733.5 967.843 1737.41 979.147 1739.1 986.601C1741.2 995.83 1742.1 1004.99 1742.84 1012.54L1742.84 1012.55V1012.55C1743.15 1015.69 1743.44 1018.56 1743.77 1021.03C1744.89 1029.43 1744.42 1035.88 1744.42 1035.88L1693.45 1033.64L1642.76 1031.68L1643.11 1066.97L1672.37 1069.24L1706.38 1073.39L1728.46 1076.04L1744.42 1078.71L1746.38 1163.82H1527.93V1301.01H1374.17C1289.59 1301.01 1218.45 1301.85 1216.21 1302.69C1212.85 1303.81 1212.01 1298.49 1210.61 1269.65C1208.93 1225.42 1204.45 1212.26 1183.44 1191.26C1170.28 1178.38 1164.4 1174.46 1148.71 1169.7C1138.83 1166.66 1131.92 1166.93 1108.76 1167.8H1108.76C1089.25 1168.53 1058.22 1169.7 1004.2 1169.7L885.71 1174.22L880.967 1217.02H1129.39L1138.63 1223.46C1157.12 1235.78 1159.64 1243.62 1160.48 1297.37L1161.6 1345.81H1110.62V1281.41H1081.43L1072.81 1345.81H1032.2L1024 1281.41H992.995V1345.81H957.706C932.22 1345.81 916.536 1344.41 901.132 1340.49C889.089 1337.41 839.237 1326.21 789.945 1315.29L617.142 1277.21C584.143 1269.93 559.34 1263.67 547.808 1260.76L547.8 1260.75L547.797 1260.75C543.382 1259.64 540.916 1259.02 540.683 1259.02C539.843 1259.02 530.321 1189.86 530.321 1189.86L529.48 1120.71L465.064 1104.47C429.776 1095.79 398.968 1088.23 397.288 1088.23C394.487 1088.23 393.647 1094.67 393.647 1111.75V1135.27L414.652 1141.71C426.415 1145.07 445.46 1151.23 457.503 1155.15L479.068 1162.42L479.908 1210.58L480.468 1259.02H295.623L279.659 989.401C281.059 704.108 281.619 691.229 295.623 605.277C305.425 544.243 320.829 488.808 341.554 438.693C349.956 418.815 382.444 360.3 384.965 360.3C385.805 360.3 419.693 384.938 460.023 414.615ZM1379.49 946.565L1359.89 967.003V1037.84L1429.8 1043.56V1079.81L1239.46 1089.63V1043.56L1309.47 1037.84V963.363L1273.06 927.527V878.251H1399.09V926.407L1379.49 946.565ZM736.732 949.645L735.892 927.807C735.332 913.808 734.774 892.513 736.734 892.513C739.131 892.513 857.862 918.855 930.579 934.989C959.844 941.482 985.434 947.125 985.434 947.125L986.798 969.998L988.234 989.961C988.234 989.961 927.739 980.722 859.962 969.803L736.732 949.645ZM747.097 1040.36C753.819 1040.08 810.953 1038.96 873.968 1038.12C937.264 1037 991.037 1035.6 991.037 1035.6L992.159 1056.5L992.998 1078.99L896.29 1082.83L829.034 1086.61L736.734 1093.41L735.054 1040.64L747.097 1040.36ZM1065.81 914.649V780.261H1166.64V914.649H1065.81ZM1485.92 914.649V780.261H1586.74V914.649H1485.92Z" fill="#232F33"/>
<path d="M961.627 171.318C1172.7 211.255 1318.72 309.065 1407.5 493.288C1434.38 549.002 1447.55 583.999 1443.63 588.759C1440.83 592.118 1408.62 592.678 1231.05 592.678L1212.34 539.458C1261.47 538.59 1259.43 532.861 1247.47 499.186C1243.55 487.987 1233 463.865 1226 450.426C1210.6 419.909 1157.39 338.996 1143.38 324.158L1133.02 313.239L1106.97 314.919L1082.69 316.434C1039.43 320.6 1021.29 325.559 1017.63 327.518C1007.83 338.157 1004.19 345.716 1004.19 356.635C1004.19 366.714 1006.99 371.473 1034.72 405.35C1044.8 417.669 1066.36 448.186 1082.89 473.664C1099.41 499.142 1116.78 524.339 1121.26 529.659L1129.94 539.458H1172.29L1195.27 592.678H1021.56L972.83 546.203C884.888 461.651 826.634 411.255 783.783 382.138C744.013 355.54 727.769 351.901 702.283 364.78C676.797 377.378 666.434 400.336 658.592 460.811C656.352 478.169 654.111 493.008 653.551 493.288C652.991 493.847 622.463 471.45 585.494 443.732L468.705 356.94C441.259 336.782 418.853 319.424 418.853 318.304C418.853 314.104 458.903 279.388 484.949 260.629C512.676 240.751 571.771 210.514 603.699 199.595C636.187 188.676 669.958 180.05 713.486 172.717C809.045 156.62 888.507 157.482 961.627 171.318Z" fill="#232F33"/>
<path d="M1120.42 353.275C1123.22 356.355 1124.9 359.435 1124.06 360.275C1123.5 361.114 1108.93 362.794 1092.13 363.914C1068.04 365.874 1060.76 365.594 1057.68 362.794C1051.52 357.195 1055.16 355.235 1079.25 351.595C1110.33 346.836 1114.81 347.116 1120.42 353.275Z" fill="#232F33"/>
<path d="M1148.14 395.551C1150.94 400.311 1152.62 404.79 1151.78 405.35C1150.38 406.75 1105.85 411.79 1094.65 412.07C1091.01 412.07 1086.53 408.71 1082.89 402.83L1077.29 393.871L1100.25 390.792C1139.46 385.472 1142.26 385.752 1148.14 395.551Z" fill="#232F33"/>
<path d="M1176.43 444.547C1180.63 451.546 1183.43 457.705 1182.87 458.545C1182.03 459.105 1168.31 460.505 1152.34 461.345L1122.94 463.305L1115.09 451.266C1110.89 444.827 1108.09 438.947 1108.93 438.107C1110.05 436.707 1137.22 433.908 1162.99 431.948C1167.19 431.668 1170.83 435.028 1176.43 444.547Z" fill="#232F33"/>
<path d="M1205.84 506.141C1205.84 507.261 1193.51 507.261 1178.67 506.701C1152.9 505.301 1151.22 504.741 1145.06 497.182L1138.62 489.062L1153.46 487.383C1161.31 486.543 1174.75 485.703 1182.87 485.423C1197.44 484.863 1197.72 485.143 1201.92 494.662L1202.92 497.357C1204.49 501.595 1205.84 505.213 1205.84 506.141Z" fill="#232F33"/>
<path d="M1749.46 1223.46C1754.78 1226.82 1761.79 1235.22 1765.43 1242.22C1771.03 1253.42 1771.59 1258.46 1771.59 1300.17V1345.81H1737.98V1281.41H1704.87L1698.77 1345.81H1656.76L1651.22 1281.41H1620.35V1345.81H1578.34V1217.02H1659.28H1659.28C1738.26 1217.02 1740.22 1217.02 1749.46 1223.46Z" fill="#232F33"/>
<path d="M328.484 1928.03C316.955 1928.03 307.261 1922.62 299.401 1911.8C291.54 1900.98 287.61 1885.56 287.61 1865.54V1411.89L315.907 1368.07H483.331V1488.99H449.532L425.951 1415.95H373.287C352.327 1415.95 341.322 1428.12 340.274 1452.47L354.423 1854.99C354.423 1858.78 356.257 1862.29 359.925 1865.54C363.593 1868.25 367.261 1869.6 370.929 1869.6H428.309C431.977 1869.6 435.383 1868.79 438.527 1867.16C442.196 1865 444.03 1862.56 444.03 1859.86L451.89 1702.42L404.728 1700.8V1655.35L493.549 1644.8V1928.03H328.484Z" fill="#232F33"/>
<path d="M783.556 1944.26H737.967L717.53 1718.65H677.443L641.286 1944.26H604.342L641.286 1367.98L771.766 1396.47L783.556 1944.26ZM722.246 1427.31C722.246 1424.06 720.674 1422.44 717.53 1422.44L695.521 1411.08C692.377 1411.08 690.805 1412.7 690.805 1415.95V1676.45C690.805 1679.16 692.377 1680.51 695.521 1680.51H729.321C732.465 1680.51 734.037 1678.89 734.037 1675.64L722.246 1427.31Z" fill="#232F33"/>
<path d="M1054.51 1445.97L1058.44 1497.1H989.268V1944.26H922.456L938.176 1511.71L881.582 1492.23L891.801 1434.61L1054.51 1445.97Z" fill="#232F33"/>
<path d="M1213.59 1944.26C1192.11 1944.26 1177.17 1940.74 1168.79 1933.71C1160.41 1926.68 1156.21 1915.04 1156.21 1898.81L1150.71 1457.34C1162.24 1450.84 1177.17 1445.97 1195.51 1442.73C1214.38 1439.48 1239.27 1437.86 1270.19 1437.86C1284.34 1437.86 1295.86 1441.65 1304.77 1449.22C1313.68 1456.25 1318.13 1465.45 1318.13 1476.81V1941.21C1318.13 1941.21 1317.97 1942.62 1317.26 1943.33C1316.56 1944.03 1304.78 1944.26 1304.78 1944.26H1213.59ZM1262.33 1898L1269.4 1890.7L1268.61 1497.1C1268.61 1494.4 1266.26 1492.77 1261.54 1492.23L1212.81 1489.8L1205.73 1494.67L1206.52 1893.13L1262.33 1898Z" fill="#232F33"/>
<path d="M1589.72 1944.26H1441.17L1429.02 1426.5L1491.45 1437.05L1500.9 1877.71L1589.72 1892.32V1944.26Z" fill="#232F33"/>
<path d="M1745.89 1944.26H1687.72L1694.78 1497.1L1680.63 1458.15V1426.5H1760.02L1745.89 1944.26Z" fill="#232F33"/>
</svg>
